<svg width="285" height="350" viewBox="0 0 285 350" fill="none" xmlns="http://www.w3.org/2000/svg">
<path d="M189.481 314H123.002V64.1465H270.658V118.321H189.481V166.002H264.335V220.177H189.481V314Z" fill="#7A84DE"/>
<path d="M158.57 91.0668C167.63 158.256 31.7614 64.566 9.84565 38.7617C5.65727 52.4141 4.3536 67.9053 6.49519 83.7879C10.5639 113.963 26.1871 138.909 46.6621 152.082C35.3918 153.158 24.304 150.579 14.2004 145.403C14.2359 145.666 14.2878 146.051 14.3383 146.426C20.0242 188.594 48.3353 220.533 80.6632 224.312C75.2252 227.087 69.3354 229.016 63.1137 229.854C58.7002 230.45 54.3111 230.392 50.0126 229.991C63.3599 263.278 91.0979 285.95 122.008 281.783C152.917 277.615 150.124 86.9698 158.57 91.0668Z" fill="#7A84DE"/>
</svg>
